General
      Complete name : To.Catch.a.Thief.1955.DVDRip.H264.AAC.Gopo.mp4
      Format : MPEG-4
      Format profile : Base Media
      Codec ID : isom
      File size : 1.26 GiB
      Duration : 1h 42mn
      Overall bit rate : 1 760 Kbps
      Encoded date : UTC 2010-03-16 08:24:46
      Tagged date : UTC 2010-03-16 08:24:46
   Video #1
      ID : 1
      Format : AVC
      Format/Info : Advanced Video Codec
      Format profile : High@L4.1
      Format settings, CABAC : Yes
      Format settings, ReFrames : 6 frames
      Codec ID : avc1
      Codec ID/Info : Advanced Video Coding
      Duration : 1h 42mn
      Bit rate mode : Variable
      Bit rate : 1 564 Kbps
      Maximum bit rate : 8 678 Kbps
      Width : 720 pixels
      Height : 384 pixels
      Display aspect ratio : 1.875
      Frame rate mode : Constant
      Frame rate : 25.000 fps
      Resolution : 24 bits
      Colorimetry : 4:2:0
      Scan type : Progressive
      Bits/(Pixel*Frame) : 0.226
      Stream size : 1.12 GiB (89%)
      Writing library : x264 core 84 r1416 fcf70c2
      Encoding settings : cabac=1 / ref=6 / deblock=1:-3:-1 / analyse=0x3:0x133 / me=umh / subme=7 / psy=1 / psy_rd=1.0:0.1 / mixed_ref=1 / me_range=32 / chroma_me=1 / trellis=2 / 8x8dct=1 / cqm=0 / deadzone=21,11 / fast_pskip=0 / chroma_qp_offset=-3 / threads=2 / sliced_threads=0 / nr=0 / decimate=1 / mbaff=0 / constrained_intra=0 / bframes=6 / b_pyramid=2 / b_adapt=2 / b_bias=0 / direct=1 / wpredb=1 / wpredp=2 / keyint=250 / keyint_min=25 / scenecut=40 / intra_refresh=0 / rc_lookahead=40 / rc=2pass / mbtree=1 / bitrate=1564 / ratetol=1.0 / qcomp=0.60 / qpmin=10 / qpmax=51 / qpstep=4 / cplxblur=20.0 / qblur=0.5 / vbv_maxrate=40000 / vbv_bufsize=40000 / ip_ratio=1.40 / aq=1:1.00
      Encoded date : UTC 2010-03-15 18:40:25
      Tagged date : UTC 2010-03-16 08:27:47
   Audio #2
      ID : 2
      Format : AAC
      Format/Info : Advanced Audio Codec
      Format version : Version 4
      Format profile : LC
      Format settings, SBR : No
      Codec ID : 40
      Duration : 1h 42mn
      Bit rate mode : Variable
      Bit rate : 192 Kbps
      Maximum bit rate : 230 Kbps
      Channel(s) : 2 channels
      Channel positions : L R
      Sampling rate : 48.0 KHz
      Resolution : 16 bits
      Stream size : 140 MiB (11%)
      Encoded date : UTC 2010-03-16 08:27:29
      Tagged date : UTC 2010-03-16 08:27:47
	Sample : YES
	Subtitle : English,Romanian

Includes five extra feautures plus trailer

PLOT
When a reformed jewel thief is suspected of returning to his former occupation, he must ferret out the real thief in order to prove his innocence.
Director: Alfred Hitchcock
CASTING 
     
	Cary Grant	... 	John Robie
	Grace Kelly	... 	Frances Stevens
	Jessie Royce Landis	... 	Jessie Stevens
	John Williams	... 	H.H. Hughson
	Charles Vanel	... 	Bertani
	Brigitte Auber	... 	Danielle Foussard
	Jean Martinelli	... 	Foussard
	Georgette Anys	... 	Germaine

SOURCE: To Catch a Thief (1955)(Hitchcock) 2Lions-Team

Notes: For best performance I suggest you to use KMPlayer(find it with google) for playback
These movies were made especially for PC and they don't play on a PS3.If you want to re-encode for PS3 or test for other devices be my guests.